<svg xmlns="http://www.w3.org/2000/svg" width="20" height="20" fill="none" viewBox="0 0 20 20"><path fill="#e94b88" fill-rule="evenodd" d="M10 20C4.486 20 0 15.514 0 10S4.486 0 10 0s10 4.486 10 10-4.486 10-10 10m8.433-8.631c-.292-.092-2.643-.794-5.32-.365 1.117 3.07 1.572 5.57 1.66 6.09a8.56 8.56 0 0 0 3.66-5.725m-5.097 6.507c-.127-.75-.623-3.361-1.822-6.478l-.056.02c-4.818 1.678-6.547 5.02-6.7 5.334a8.53 8.53 0 0 0 8.578 1.124m-9.682-2.152c.194-.331 2.538-4.212 6.943-5.636q.168-.054.337-.102a29 29 0 0 0-.693-1.45C5.976 9.814 1.837 9.76 1.463 9.753l-.005.261a8.5 8.5 0 0 0 2.196 5.711M1.64 8.264c.382.005 3.901.02 7.896-1.041a55 55 0 0 0-3.166-4.94 8.57 8.57 0 0 0-4.73 5.98m6.36-6.555a46 46 0 0 1 3.186 5c3.038-1.138 4.324-2.866 4.477-3.085a8.53 8.53 0 0 0-7.664-1.915m8.613 2.903c-.18.243-1.612 2.078-4.77 3.367a26 26 0 0 1 .75 1.678c2.843-.357 5.667.216 5.949.275a8.5 8.5 0 0 0-1.93-5.32" clip-rule="evenodd"/></svg>