<svg xmlns="http://www.w3.org/2000/svg" width="26" height="32" fill="none" viewBox="0 0 26 32"><path fill="#5221e6" fill-rule="evenodd" d="M24.12 23.111h-9.932v7.111h9.932zm0-21.333h-9.932V16h9.932zM8.513 16H1.419v14.222h7.094zm0-14.222H1.419v7.11h7.094zM14.188 0c-.784 0-1.419.796-1.419 1.778V16c0 .982.635 1.778 1.419 1.778h9.932c.783 0 1.418-.796 1.418-1.778V1.778C25.539.796 24.903 0 24.12 0zm0 21.333c-.784 0-1.419.796-1.419 1.778v7.111c0 .982.635 1.778 1.419 1.778h9.932c.783 0 1.418-.796 1.418-1.778v-7.11c0-.983-.635-1.779-1.418-1.779zM0 16c0-.982.635-1.778 1.419-1.778h7.094c.783 0 1.419.796 1.419 1.778v14.222c0 .982-.636 1.778-1.42 1.778H1.42C.635 32 0 31.204 0 30.222zM1.419 0C.635 0 0 .796 0 1.778v7.11c0 .983.635 1.779 1.419 1.779h7.094c.783 0 1.419-.796 1.419-1.778V1.778C9.932.796 9.296 0 8.512 0z" clip-rule="evenodd"/></svg>