<svg xmlns="http://www.w3.org/2000/svg" width="32" height="32" fill="none" viewBox="0 0 32 32"><path fill="#5221e6" d="M17.221 1.2 30.8 14.778l1.2-1.2L18.422 0z"/><path fill="#5221e6" fill-rule="evenodd" d="M19.234 7.601a2.55 2.55 0 0 0-2.804-.54l-9.423 4.04a4.22 4.22 0 0 0-2.352 2.559 467 467 0 0 0-2.98 9.346 133 133 0 0 0-1.176 4.039c-.148.551-.27 1.036-.355 1.427-.079.364-.144.723-.144.981v.352l2.194 2.194h.352c.258 0 .617-.065.981-.144a32 32 0 0 0 1.427-.355c1.105-.297 2.51-.71 4.039-1.175a468 468 0 0 0 9.346-2.982 4.22 4.22 0 0 0 2.56-2.351l4.038-9.424a2.55 2.55 0 0 0-.54-2.803zm-2.135 1.02a.85.85 0 0 1 .934.18l5.164 5.165a.85.85 0 0 1 .18.934l-4.038 9.423a2.53 2.53 0 0 1-1.531 1.409 465 465 0 0 1-9.31 2.97c-1.522.463-2.907.87-3.984 1.159-.54.145-.994.258-1.347.335l-.207.043 8.672-8.672a2.547 2.547 0 1 0-1.2-1.2L1.76 29.04q.018-.095.043-.207c.077-.353.19-.808.335-1.347.29-1.078.696-2.462 1.16-3.984a465 465 0 0 1 2.97-9.31 2.53 2.53 0 0 1 1.408-1.53z" clip-rule="evenodd"/></svg>