<svg xmlns="http://www.w3.org/2000/svg" width="71" height="29" fill="none" viewBox="0 0 71 29"><path fill="#8491a0" d="M19.513 14.098c-1.385 4.214-4.772 6.589-9.352 6.589C4.465 20.687 0 16.167 0 10.382 0 4.674 4.465 0 9.968 0c5.118 0 10.045 4.215 10.007 11.225H3.31c.423 4.1 3.58 6.513 6.85 6.513 2.81 0 4.811-1.341 5.89-3.64zm-3.156-5.785C15.55 5.095 12.855 2.95 9.968 2.95c-2.732 0-5.619 1.993-6.465 5.363zm15.125 12.374c-2.848 0-5.312-1.532-6.735-3.448V29h-3.272V.498h3.156V3.64C26.017 1.648 28.556 0 31.481 0c5.696 0 9.892 4.636 9.892 10.306 0 5.746-4.196 10.38-9.891 10.38m0-17.698c-3.657 0-6.735 3.294-6.735 7.317 0 4.06 3.078 7.393 6.735 7.393 3.694 0 6.62-3.333 6.62-7.393 0-4.023-2.926-7.317-6.62-7.317M42.797.499h3.271v19.728h-3.271zm4.732 9.895c0-5.757 4.695-10.388 10.638-10.388 5.945 0 10.64 4.63 10.64 10.388 0 5.757-4.738 10.303-10.64 10.303-5.9 0-10.638-4.546-10.638-10.303m11.537-7.245c-5.416-.471-8.428 3.633-8.428 8.414s3.959 8.657 8.84 8.657a8.94 8.94 0 0 0 5.11-1.593l-1.225-3.106c1.266-1.312 1.998-3.127 1.998-5.131 0-3.963-2.78-6.912-6.295-7.241"/><path fill="#8491a0" d="m56.214 12.377 9.65 7.816H71l-9.402-7.817"/></svg>