<svg xmlns="http://www.w3.org/2000/svg" width="154" height="25" fill="none" viewBox="0 0 154 25"><g fill="#8491a0" clip-path="url(#a)"><path d="M7.964 8.704q0-.495-.336-.853a1.1 1.1 0 0 0-.834-.359q-1.568 0-3.26 3.339-1.568 3.017-1.568 4.797 0 1.608 1.095 1.607 1.543 0 3.085-3.116a22.7 22.7 0 0 0 1.643-4.5q.175-.693.175-.915m3.01 6.231v.05a.2.2 0 0 0-.024.074q-.523 1.26-1.369 2.151-1.07 1.088-2.24 1.088-1.344 0-1.343-1.607 0-.42.074-.816-1.666 2.424-3.634 2.423-1.17 0-1.84-.914Q0 16.593 0 15.38q0-2.472 2.165-5.465Q4.479 6.75 6.868 6.75q1.02 0 1.718.89.198-.741.796-.741 1.145 0 1.145.395 0 .075-.572 1.78-2.216 6.603-2.215 7.592 0 .47.348.47.697 0 1.605-1.261.909-1.26.933-1.261.35 0 .349.321M23.617 5.044q0-2.077-1.007-2.979-1.01-.903-3.05-.878-1.592 0-1.592.692v7.047q.92.149 1.344.148 4.33-.024 4.305-4.03m2.937 0q0 4.945-6.744 4.945-.872 0-1.842-.098v4.402q0 2.325.821 2.67.05.025 1.07.322.597.148.573.395-.025.297-.399.297h-6.769q-.372 0-.397-.297-.026-.246.572-.395 1.02-.297 1.07-.322.82-.345.82-2.67V4.154q0-2.325-.82-2.67-.05-.025-1.07-.322-.599-.148-.572-.396.024-.296.397-.296h7.292q2.589 0 4.18 1.063 1.818 1.186 1.818 3.511M32.716 17.68q-.026.297-.399.297h-5.375q-.375 0-.398-.297-.025-.197.572-.346.771-.172 1.07-.37.298-.198.324-1.089V2.893q0-.667-.125-.878t-.746-.21q-.946 0-.946-.297 0-.32.597-.445 1.444-.297 2.838-.815.173-.05.273-.05.248 0 .299.284.05.285.05 1.2v12.61q0 2.499.323 2.672.174.099 1.07.321.597.173.573.395M40.057 14.675v-2.756q-1.842.345-2.762.836-1.494.838-1.493 2.314 0 .787.46 1.267t1.257.48q.995 0 1.767-.616.77-.616.77-1.525m4.554 1.596q-.672 1.905-2.34 1.904-1.791.001-2.189-1.805-1.892 1.805-3.833 1.805-1.245 0-1.966-.715-.722-.715-.722-1.95 0-2.244 2.44-3.354 1.392-.617 4.056-.963.075-2.343-.374-3.034-.372-.616-1.692-.592-1.095.025-1.444.693L36.2 9.496q-.249.668-1.071.668-1.094 0-1.094-.94 0-1.211 1.517-1.88 1.17-.495 2.638-.494 4.032.024 4.032 2.763v6.093q0 1.332.746 1.307.498 0 .834-.532.336-.531.486-.531a.36.36 0 0 1 .261.111q.112.112.062.21M54.376 16.28q-1.618 2.092-3.982 2.092-2.464 0-3.932-1.56-1.47-1.56-1.469-4.065 0-2.502 1.63-4.212t4.144-1.686q1.145 0 2.24.495 1.37.618 1.369 1.632 0 .964-.996.964-.597 0-.933-.568-.336-.57-.634-1.138-.448-.593-1.245-.594-1.642 0-2.488 1.587-.648 1.265-.647 3.074 0 1.984.796 3.347.945 1.686 2.762 1.686 1.045 0 1.991-.75.199-.176 1.22-1.276.124-.126.223-.126.225 0 .225.374t-.274.723M63.355 10.555q-.15-2.938-2.364-2.914-2.39.025-2.863 3.413h3.111q2.14 0 2.116-.499m2.364 1.042q0 .273-.274.322h-7.416q-.025.345-.025.52 0 2.027.747 3.288.944 1.558 2.837 1.558 1.244 0 2.115-.544.449-.297 1.319-1.212a.3.3 0 0 1 .224-.098q.323 0 .324.296 0 .099-.075.222-1.42 2.399-4.48 2.375-2.439-.026-3.931-1.57-1.494-1.546-1.494-3.945 0-2.472 1.468-4.179 1.569-1.805 4.007-1.78 1.866 0 3.111 1.113 1.518 1.335 1.543 3.634M80.302 1.608a.94.94 0 0 1-.262.655.83.83 0 0 1-.634.284q-.597 0-.946-.865-.348-.866-.92-.866-1.295 0-2.041 1.514-.274.522-.872 2.607l-.67 2.333h2.462q.325 0 .325.306 0 .51-.549.51h-2.438l-2.489 9.32q-.871 3.254-1.717 4.808Q68.008 25 65.693 25q-.87 0-1.543-.494-.672-.495-.672-1.311.001-1.113 1.007-1.113.69 0 .86.544.05.198.05 1.063 0 .57.524.57 1.05 0 1.85-1.878.35-.814.873-2.79l3.05-11.505h-2.59q-.222 0-.223-.28 0-.537.474-.536h2.488q.995-3.19 1.94-4.673Q75.4 0 77.788 0q.871 0 1.618.37.896.446.896 1.238M82.693 9.52q0-2.028-1.369-2.028-1.568 0-2.886 3.29-1.12 2.793-1.12 4.673-.001 2.152 1.468 2.151 1.542 0 2.837-3.338 1.07-2.82 1.07-4.748m1.816 1.311q.001 2.572-1.543 4.871-1.741 2.597-4.205 2.597-1.617 0-2.489-1.286-.796-1.113-.796-2.77 0-2.546 1.568-4.896 1.767-2.62 4.205-2.62 1.618 0 2.49 1.285.77 1.138.77 2.82M94.587 8.086q0 .445-.262.816t-.685.37q-.422 0-.647-.518-.224-.52-.596-.52-1.37 0-4.48 9.743h-1.941q.746-2.497 1.493-5.02 1.17-3.981 1.17-4.476 0-.42-.373-.42-.673 0-1.27.816-.2.247-.796 1.36-.15.297-.423.297-.374 0-.373-.297l.024-.1q.324-1.235 1.27-2.249 1.069-1.113 2.264-1.113 1.319 0 1.319 1.509 0 .47-.174 1.162-.175.593-.324 1.162 1.89-3.833 3.558-3.833.549 0 .897.384.349.382.349.927M117.307 17.68q-.024.298-.398.298h-6.57q-.374 0-.398-.297-.025-.248.572-.396 1.02-.297 1.07-.321.822-.346.821-2.671V2.622l-6.421 15.034q-.223.52-.348.52t-.423-.668L99.687 4.896a12.4 12.4 0 0 0-.896-1.706l.15 11.103q.025 1.186.1 1.608.173.815.722 1.063.049.024 1.069.321.597.15.573.396-.025.297-.399.297h-5.325q-.374 0-.398-.297-.025-.248.572-.396 1.02-.297 1.07-.321.548-.248.721-1.113.1-.42.1-1.558l.125-12.166q-.399-.321-1.17-.643a20 20 0 0 1-1.07-.322q-.598-.147-.572-.395.024-.297.398-.297h2.986q1.692.025 1.941.16.248.137.747 1.3l5.301 12.338L112.156.841q.149-.37.671-.37h4.082q.374 0 .398.296.025.248-.572.395-1.021.298-1.07.322-.822.347-.822 2.67v10.139q0 2.325.822 2.67.049.025 1.07.322.596.15.572.396M126.814 12.624q0-2.057-.673-3.372-.87-1.71-2.712-1.71t-2.712 1.76q-.672 1.313-.672 3.347 0 1.982.672 3.296.896 1.686 2.712 1.686 1.841 0 2.712-1.686.672-1.313.673-3.322m2.388-.15q0 2.528-1.642 4.214-1.643 1.685-4.181 1.685t-4.105-1.586q-1.57-1.587-1.569-4.138 0-2.528 1.643-4.164 1.642-1.635 4.181-1.635 2.413 0 4.044 1.61 1.629 1.61 1.629 4.015M150.68 17.681q-.025.297-.399.296h-5.375q-.374 0-.398-.296-.024-.196.572-.346.771-.172 1.083-.381.31-.21.311-2.652v-3.207q0-1.505-.373-2.195-.498-.938-1.917-.938-1.195 0-2.04.728-.847.728-.846 1.789v3.823q.024 1.48.024 1.628.05.888.299 1.036.248.148 1.07.345.596.148.573.37-.026.297-.398.296h-5.376q-.374 0-.398-.296-.025-.196.572-.346.77-.172 1.083-.381.31-.21.311-2.652v-3.207q0-1.505-.374-2.195-.497-.938-1.916-.938-1.195 0-2.04.728-.846.728-.846 1.789v3.823q0 2.49.323 2.664.174.1 1.07.32.597.173.573.395-.026.297-.398.296h-5.376q-.374 0-.398-.297-.025-.197.596-.321.773-.15 1.071-.408.299-.26.299-2.658V9.57q0-.668-.125-.878-.124-.21-.747-.21-.945 0-.945-.297 0-.322.596-.445 1.442-.297 2.833-.817.225-.049.299-.049.223 0 .274.322.023.223.049 1.26.546-.704 1.603-1.143a5.6 5.6 0 0 1 2.174-.439q2.586 0 3.232 1.905 1.49-1.905 4.175-1.905 2.038 0 2.809 1.11.844 1.21.844 3.8v2.517q0 1.406.025 1.628.05.889.299 1.037t1.071.345q.596.148.572.37M152.905 16.565a.6.6 0 0 0-.203-.028h-.085v.386h.137a.32.32 0 0 0 .19-.05q.069-.048.069-.157t-.108-.15m-.637 1.065v-1.326h.371q.248 0 .276.003.158.01.263.068.178.097.178.317 0 .167-.094.24a.44.44 0 0 1-.231.09.45.45 0 0 1 .189.077q.118.094.118.298v.118a.3.3 0 0 0 .013.078l.012.037h-.334a1 1 0 0 1-.022-.183.6.6 0 0 0-.022-.162.16.16 0 0 0-.098-.098.4.4 0 0 0-.119-.021l-.077-.005h-.074v.47zm-.18-1.359a.95.95 0 0 0-.288.693q0 .416.293.707.29.29.703.29a.95.95 0 0 0 .701-.292.97.97 0 0 0 .291-.705.96.96 0 0 0-.29-.693.95.95 0 0 0-.702-.299q-.416 0-.708.3m1.551 1.552a1.17 1.17 0 0 1-.843.338 1.17 1.17 0 0 1-.857-.346 1.15 1.15 0 0 1-.348-.85q0-.525.376-.872.353-.325.829-.325.498 0 .851.35.353.352.353.846 0 .51-.361.86"/></g><defs><clipPath id="a"><path fill="#fff" d="M0 0h154v25H0z"/></clipPath></defs></svg>