<svg xmlns="http://www.w3.org/2000/svg" width="32" height="32" fill="none" viewBox="0 0 32 32"><path fill="#5221e6" d="M29.828 8.236H26.9L26.227 5.2A2.795 2.795 0 0 0 23.481 3H13.316c-1.33 0-2.459.905-2.746 2.201l-.673 3.035h-.694V6.94c0-.73-.595-1.323-1.326-1.323H3.591c-.73 0-1.325.593-1.325 1.323v1.295h-.094A2.173 2.173 0 0 0 0 10.404v14.688c0 1.196.975 2.169 2.172 2.169h10.075a11.3 11.3 0 0 0 6.152 1.813c2.265 0 4.378-.667 6.151-1.814h5.278A2.173 2.173 0 0 0 32 25.093V10.404a2.173 2.173 0 0 0-2.172-2.168M11.79 5.47c.16-.72.788-1.223 1.526-1.223h10.165c.739 0 1.366.503 1.526 1.223l.613 2.765h-1.07a11.3 11.3 0 0 0-6.151-1.814c-2.266 0-4.379.667-6.152 1.814h-1.07zM3.516 6.94c0-.042.034-.075.075-.075h4.286c.042 0 .076.033.076.075v1.295H3.516zm1.503 19.072v-6.777a.624.624 0 0 0-1.25 0v6.777H2.172a.923.923 0 0 1-.922-.921V10.404c0-.508.414-.92.922-.92h8.477a11.29 11.29 0 0 0-3.596 8.264c0 3.257 1.385 6.197 3.597 8.265zm19.15 0a10.08 10.08 0 0 1-11.541 0c-2.613-1.824-4.325-4.848-4.325-8.265s1.712-6.441 4.325-8.264a10.08 10.08 0 0 1 11.541 0c2.613 1.823 4.325 4.847 4.325 8.264s-1.712 6.441-4.325 8.265m6.581-.921c0 .508-.414.92-.922.92h-3.68a11.29 11.29 0 0 0 3.596-8.264c0-3.257-1.385-6.196-3.596-8.265h3.68c.508 0 .922.413.922.921z"/><path fill="#5221e6" d="M18.37 10.111c-4.247 0-7.703 3.456-7.703 7.704s3.456 7.703 7.704 7.703c.618 0 1.234-.073 1.83-.219a.587.587 0 1 0-.277-1.14 6.538 6.538 0 0 1-8.083-6.344c0-3.6 2.929-6.53 6.53-6.53 3.6 0 6.53 2.93 6.53 6.53a6.5 6.5 0 0 1-1.121 3.66.587.587 0 0 0 .971.658 7.67 7.67 0 0 0 1.323-4.318c0-4.248-3.456-7.704-7.704-7.704M4.74 11.296a2.373 2.373 0 0 0-2.37 2.37 2.373 2.373 0 0 0 2.37 2.371 2.373 2.373 0 0 0 2.371-2.37 2.373 2.373 0 0 0-2.37-2.37m0 3.468a1.098 1.098 0 0 1 0-2.194c.606 0 1.098.492 1.098 1.097s-.492 1.097-1.097 1.097"/><path fill="#5221e6" d="M23.693 23.625a.6.6 0 0 0-.089-.213.6.6 0 0 0-.163-.164.6.6 0 0 0-.214-.088.59.59 0 0 0-.608.252.6.6 0 0 0-.1.329.6.6 0 0 0 .1.329.58.58 0 0 0 .377.252.59.59 0 0 0 .535-.162.6.6 0 0 0 .162-.535"/></svg>