<svg
  xmlns="http://www.w3.org/2000/svg"
  width="79"
  height="24"
  fill="none"
  viewBox="0 0 79 24"
>
  <symbol id="logo">
    <path
      fill="#fff"
      d="M4.86 23.7H0V0h5.43q1.68 0 2.73.18 1.08.15 1.68.66t.81 1.47q.24.93.24 2.52v2.46q0 .93-.21 1.53t-.54.96q-.3.36-.66.54-.36.15-.66.21v.12q.45.12.81.36.39.21.66.66t.42 1.2q.18.72.18 1.86v8.97H6V13.2q0-.39-.09-.51-.09-.15-.48-.15h-.57zm0-14.97h.57q.39 0 .48-.12.09-.15.09-.54V4.83q0-.39-.09-.51-.09-.15-.48-.15h-.57zm17.416 11.46q0 1.26-.21 2.01-.18.75-.72 1.17-.51.39-1.44.51-.9.12-2.37.12-1.44 0-2.37-.12t-1.44-.51q-.51-.42-.72-1.17-.18-.75-.18-2.01V9.24q0-1.26.18-2.01.21-.75.72-1.14.51-.42 1.44-.54t2.37-.12q1.47 0 2.37.12.93.12 1.44.54.54.39.72 1.14.21.75.21 2.01zm-5.28-.84q0 .39.09.54.09.12.45.12.39 0 .48-.12.09-.15.09-.54v-9.27q0-.39-.09-.51-.09-.15-.48-.15-.36 0-.45.15-.09.12-.09.51zM28.724 0v6.54q.39-.54.96-.75.6-.21 1.47-.21t1.41.21q.54.18.81.6.3.42.39 1.14.12.69.12 1.71v10.95q0 1.05-.12 1.77-.09.69-.39 1.11t-.87.6-1.47.18q-1.02 0-1.65-.21-.63-.24-.96-.75v.81h-3.99V0zm.99 10.08q0-.36-.09-.51-.06-.15-.39-.15-.3 0-.45.12a.55.55 0 0 0-.18.3v9.75q.06.21.18.33.15.09.45.09.33 0 .39-.15.09-.15.09-.51zm10.641-6.96h-4.26V0h4.26zm0 20.58h-4.26V5.73h4.26zm12.198 0h-4.32V10.08q0-.36-.09-.51-.06-.15-.39-.15-.3 0-.45.12a.7.7 0 0 0-.21.3V23.7h-4.29V5.73h3.99v.81q.33-.51.96-.72.63-.24 1.65-.24.9 0 1.5.18.63.18.99.6t.51 1.14q.15.69.15 1.74zm6.641 0h-4.35v-4.23h4.35zM78.43 0l-2.46 23.7h-6.12l-.81-17.19h-.12l-.99 17.19h-6.21L59.89 0h4.89l.51 16.62h.12L66.13 0h6l.51 16.62h.12L73.51 0z"
    />
  </symbol>
</svg>
